PathFileType	4	(X/Y/Z)	 control3min.trc
DataRate	CameraRate	NumFrames	NumMarkers	Units	OrigDataRate	OrigDataStartFrame	OrigNumFrames
200	200	10	34	m	200	501	1000
Frame#	Time	C7			LSH			RSH			RASI			LASI			HIPR			HIPL			RPSI			LPSI			COX			RTHI1			RTHI2			RTHI3			RTHI4			RSHA1			RSHA2			RSHA3			RSHA4			RHEEL			RMET5			RMET1			RTOE			LTHI1			LTHI2			LTHI3			LTHI4			LSHA1			LSHA2			LSHA3			LSHA4			LHEEL			LMET5			LMET1			LTOE			
		X1	Y1	Z1	X2	Y2	Z2	X3	Y3	Z3	X4	Y4	Z4	X5	Y5	Z5	X6	Y6	Z6	X7	Y7	Z7	X8	Y8	Z8	X9	Y9	Z9	X10	Y10	Z10	X11	Y11	Z11	X12	Y12	Z12	X13	Y13	Z13	X14	Y14	Z14	X15	Y15	Z15	X16	Y16	Z16	X17	Y17	Z17	X18	Y18	Z18	X19	Y19	Z19	X20	Y20	Z20	X21	Y21	Z21	X22	Y22	Z22	X23	Y23	Z23	X24	Y24	Z24	X25	Y25	Z25	X26	Y26	Z26	X27	Y27	Z27	X28	Y28	Z28	X29	Y29	Z29	X30	Y30	Z30	X31	Y31	Z31	X32	Y32	Z32	X33	Y33	Z33	X34	Y34	Z34	
501	2.5050	-0.234461	1.605848	-0.533682	-0.199024	1.592560	-0.763988	-0.177489	1.587437	-0.341386	-0.087134	1.076837	-0.443737	-0.102195	1.073381	-0.669001	-0.146261	1.140554	-0.390980	-0.180239	1.144495	-0.714301	-0.275460	1.102828	-0.484352	-0.285176	1.103099	-0.594092	-0.286024	1.108793	-0.538239	-0.147322	0.871390	-0.354759	-0.128411	0.815253	-0.344194	-0.066965	0.828800	-0.360041	-0.078254	0.888036	-0.372947	-0.246848	0.323323	-0.331329	-0.264749	0.284753	-0.339220	-0.206800	0.267443	-0.345167	-0.194180	0.305371	-0.340620	-0.376417	0.073806	-0.389156	-0.197141	0.024500	-0.315276	-0.152456	0.041914	-0.410309	-0.120148	0.030437	-0.407598	-0.168883	0.821063	-0.755571	-0.142050	0.765882	-0.766562	-0.081313	0.789985	-0.768848	-0.100412	0.846139	-0.758941	-0.265230	0.307868	-0.751187	-0.281917	0.272147	-0.742904	-0.222547	0.250066	-0.745666	-0.213351	0.293435	-0.755279	-0.381194	0.078606	-0.677955	-0.213609	0.024675	-0.780252	-0.161347	0.041628	-0.703308	-0.126580	0.029885	-0.710064	
502	2.5100	-0.234514	1.607049	-0.533521	-0.199390	1.593737	-0.763861	-0.177324	1.588740	-0.341270	-0.086712	1.078141	-0.443679	-0.101856	1.074764	-0.668870	-0.145629	1.141919	-0.390861	-0.180003	1.145910	-0.714170	-0.275051	1.104171	-0.484134	-0.284847	1.104432	-0.593921	-0.285695	1.109988	-0.538036	-0.147285	0.872620	-0.354798	-0.128488	0.816450	-0.344119	-0.067018	0.829854	-0.359962	-0.078170	0.889127	-0.372868	-0.247430	0.324014	-0.331401	-0.265062	0.285555	-0.339088	-0.207105	0.268383	-0.344984	-0.194572	0.306333	-0.340459	-0.376178	0.074532	-0.388974	-0.197086	0.024486	-0.315275	-0.152419	0.041908	-0.410291	-0.120140	0.030436	-0.407607	-0.169123	0.822279	-0.755202	-0.142384	0.767056	-0.766148	-0.081612	0.791045	-0.768565	-0.100615	0.847221	-0.758731	-0.265518	0.308718	-0.750897	-0.282130	0.272947	-0.742621	-0.222737	0.250988	-0.745429	-0.213610	0.294376	-0.754986	-0.380929	0.079342	-0.677878	-0.213619	0.024726	-0.780110	-0.161234	0.041596	-0.703278	-0.126519	0.029900	-0.710052	
503	2.5150	-0.234627	1.608694	-0.533365	-0.199819	1.595392	-0.763722	-0.177205	1.590510	-0.341179	-0.086178	1.079925	-0.443612	-0.101373	1.076637	-0.668713	-0.144847	1.143765	-0.390777	-0.179635	1.147778	-0.714029	-0.274524	1.105940	-0.483902	-0.284381	1.106212	-0.593774	-0.285238	1.111601	-0.537846	-0.147258	0.874269	-0.354882	-0.128606	0.818054	-0.344063	-0.067102	0.831281	-0.359892	-0.078086	0.890598	-0.372800	-0.247766	0.325110	-0.330844	-0.265484	0.286690	-0.338916	-0.207505	0.269684	-0.344733	-0.195090	0.307659	-0.340241	-0.375868	0.075590	-0.388756	-0.197016	0.024475	-0.315282	-0.152380	0.041899	-0.410271	-0.120147	0.030418	-0.407628	-0.169345	0.823950	-0.754824	-0.142749	0.768666	-0.765674	-0.081925	0.792459	-0.768213	-0.100777	0.848694	-0.758473	-0.265938	0.309844	-0.750743	-0.282460	0.273992	-0.742485	-0.223024	0.252206	-0.745313	-0.213989	0.295613	-0.754798	-0.380663	0.080331	-0.678080	-0.213599	0.024760	-0.780014	-0.161149	0.041567	-0.703264	-0.126499	0.029904	-0.710033	
504	2.5200	-0.234792	1.610767	-0.533219	-0.200300	1.597505	-0.763577	-0.177137	1.592736	-0.341114	-0.085539	1.082164	-0.443535	-0.100760	1.078954	-0.668539	-0.143947	1.146059	-0.390729	-0.179147	1.150055	-0.713876	-0.273874	1.108139	-0.483683	-0.283788	1.108412	-0.593648	-0.284659	1.113629	-0.537677	-0.147238	0.876319	-0.354917	-0.128772	0.820046	-0.344017	-0.067221	0.833064	-0.359823	-0.078002	0.892433	-0.372735	-0.248498	0.326587	-0.331212	-0.266016	0.288190	-0.338722	-0.207989	0.271311	-0.344433	-0.195726	0.309314	-0.340007	-0.375479	0.076983	-0.388528	-0.196929	0.024469	-0.315302	-0.152334	0.041861	-0.410267	-0.120167	0.030382	-0.407660	-0.169560	0.826060	-0.754437	-0.143165	0.770686	-0.765217	-0.082247	0.794252	-0.767829	-0.100905	0.850546	-0.758179	-0.266484	0.311230	-0.750713	-0.282897	0.275285	-0.742483	-0.223416	0.253673	-0.745302	-0.214483	0.297130	-0.754704	-0.380384	0.081560	-0.678519	-0.213545	0.024788	-0.779955	-0.161085	0.041540	-0.703266	-0.126512	0.029897	-0.710009	
505	2.5250	-0.235009	1.613247	-0.533082	-0.200830	1.600053	-0.763429	-0.177123	1.595378	-0.341067	-0.084807	1.084837	-0.443447	-0.100032	1.081685	-0.668350	-0.142989	1.148775	-0.390702	-0.178548	1.152710	-0.713698	-0.273110	1.110740	-0.483492	-0.283077	1.111012	-0.593539	-0.283968	1.116050	-0.537519	-0.147229	0.878759	-0.354896	-0.128989	0.822406	-0.343975	-0.067377	0.835189	-0.359751	-0.077919	0.894611	-0.372662	-0.249237	0.328205	-0.331196	-0.266649	0.290018	-0.338524	-0.208544	0.273254	-0.344077	-0.196453	0.311306	-0.339724	-0.375009	0.078709	-0.388301	-0.196823	0.024469	-0.315334	-0.152280	0.041798	-0.410279	-0.120204	0.030327	-0.407699	-0.169771	0.828590	-0.754039	-0.143646	0.773096	-0.764760	-0.082597	0.796369	-0.767403	-0.101007	0.852757	-0.757862	-0.267149	0.312874	-0.750810	-0.283430	0.276817	-0.742598	-0.223877	0.255460	-0.745403	-0.215084	0.298927	-0.754692	-0.380072	0.083019	-0.679151	-0.213459	0.024811	-0.779930	-0.161039	0.041517	-0.703285	-0.126552	0.029887	-0.709981	
506	2.5300	-0.235276	1.616096	-0.532957	-0.201439	1.603009	-0.763288	-0.177161	1.598443	-0.341009	-0.083987	1.087921	-0.443347	-0.099199	1.084790	-0.668144	-0.141965	1.151892	-0.390672	-0.177864	1.155707	-0.713511	-0.272273	1.113722	-0.483277	-0.282257	1.113985	-0.593448	-0.283184	1.118848	-0.537370	-0.147233	0.881559	-0.354816	-0.129252	0.825122	-0.343931	-0.067570	0.837642	-0.359666	-0.077838	0.897113	-0.372572	-0.250933	0.331031	-0.329717	-0.267353	0.292138	-0.338304	-0.209153	0.275506	-0.343668	-0.197256	0.313623	-0.339403	-0.374419	0.080727	-0.387997	-0.196699	0.024483	-0.315382	-0.152222	0.041711	-0.410301	-0.120253	0.030256	-0.407750	-0.169981	0.831511	-0.753640	-0.144164	0.775910	-0.764263	-0.082989	0.798826	-0.766975	-0.101090	0.855305	-0.757530	-0.267920	0.314769	-0.751014	-0.284047	0.278586	-0.742803	-0.224410	0.257485	-0.745576	-0.215777	0.301004	-0.754773	-0.379718	0.084738	-0.679966	-0.213345	0.024833	-0.779924	-0.161004	0.041496	-0.703319	-0.126613	0.029871	-0.709952	
507	2.5350	-0.235591	1.619286	-0.532843	-0.202122	1.606346	-0.763155	-0.177258	1.601896	-0.340949	-0.083088	1.091388	-0.443231	-0.098283	1.088241	-0.667929	-0.140918	1.155383	-0.390627	-0.177076	1.159021	-0.713307	-0.271334	1.117054	-0.483090	-0.281351	1.117302	-0.593362	-0.282317	1.121998	-0.537222	-0.147243	0.884701	-0.354671	-0.129557	0.828180	-0.343878	-0.067797	0.840397	-0.359553	-0.077760	0.899919	-0.372459	-0.252065	0.333036	-0.329823	-0.268108	0.294513	-0.338064	-0.209793	0.278063	-0.343215	-0.198111	0.316251	-0.339051	-0.373693	0.083006	-0.387576	-0.196561	0.024516	-0.315449	-0.152161	0.041600	-0.410331	-0.120314	0.030168	-0.407808	-0.170198	0.834799	-0.753247	-0.144729	0.779045	-0.763782	-0.083409	0.801595	-0.766543	-0.101159	0.858176	-0.757192	-0.268769	0.316889	-0.751256	-0.284732	0.280591	-0.743076	-0.225001	0.259744	-0.745761	-0.216547	0.303356	-0.754920	-0.379293	0.086712	-0.680918	-0.213204	0.024858	-0.779926	-0.160970	0.041478	-0.703368	-0.126688	0.029855	-0.709923	
508	2.5400	-0.235951	1.622778	-0.532742	-0.202872	1.610029	-0.763029	-0.177415	1.605700	-0.340890	-0.082126	1.095202	-0.443096	-0.097297	1.092007	-0.667702	-0.139827	1.159212	-0.390568	-0.176183	1.162651	-0.713097	-0.270330	1.120711	-0.482905	-0.280371	1.120939	-0.593270	-0.281381	1.125491	-0.537071	-0.147270	0.888145	-0.354484	-0.129908	0.831544	-0.343804	-0.068062	0.843434	-0.359413	-0.077686	0.903012	-0.372319	-0.252866	0.335525	-0.329550	-0.268892	0.297122	-0.337833	-0.210451	0.280895	-0.342726	-0.198997	0.319168	-0.338664	-0.372829	0.085535	-0.387079	-0.196410	0.024567	-0.315538	-0.152098	0.041470	-0.410365	-0.120379	0.030098	-0.407860	-0.170417	0.838420	-0.752864	-0.145325	0.782528	-0.763330	-0.083844	0.804664	-0.766132	-0.101219	0.861343	-0.756849	-0.269691	0.319271	-0.751554	-0.285469	0.282837	-0.743387	-0.225642	0.262288	-0.746006	-0.217390	0.305972	-0.755115	-0.378772	0.088921	-0.681948	-0.213037	0.024894	-0.779922	-0.160932	0.041460	-0.703432	-0.126772	0.029836	-0.709894	
509	2.5450	-0.236357	1.626537	-0.532654	-0.203692	1.614020	-0.762907	-0.177629	1.609792	-0.340825	-0.081115	1.099319	-0.442936	-0.096259	1.096053	-0.667459	-0.138716	1.163348	-0.390479	-0.175193	1.166580	-0.712878	-0.269275	1.124689	-0.482715	-0.279329	1.124873	-0.593178	-0.280393	1.129290	-0.536913	-0.147322	0.891877	-0.354337	-0.130300	0.835186	-0.343705	-0.068363	0.846734	-0.359238	-0.077626	0.906359	-0.372153	-0.253409	0.338207	-0.329100	-0.269651	0.299906	-0.337596	-0.211107	0.283996	-0.342194	-0.199893	0.322364	-0.338220	-0.371839	0.088306	-0.386515	-0.196248	0.024638	-0.315651	-0.152045	0.041375	-0.410362	-0.120448	0.030045	-0.407902	-0.170632	0.842343	-0.752503	-0.145937	0.786312	-0.762892	-0.084302	0.807982	-0.765708	-0.101273	0.864782	-0.756498	-0.270674	0.321906	-0.751884	-0.286246	0.285314	-0.743709	-0.226317	0.265131	-0.746374	-0.218288	0.308848	-0.755349	-0.378137	0.091352	-0.683015	-0.212845	0.024944	-0.779898	-0.160881	0.041442	-0.703511	-0.126861	0.029815	-0.709866	
510	2.5500	-0.236800	1.630526	-0.532585	-0.204569	1.618282	-0.762785	-0.177904	1.614149	-0.340777	-0.080067	1.103688	-0.442749	-0.095181	1.100341	-0.667205	-0.137574	1.167787	-0.390362	-0.174101	1.170797	-0.712662	-0.268185	1.128937	-0.482503	-0.278242	1.129071	-0.593083	-0.279370	1.133372	-0.536757	-0.147401	0.895862	-0.354225	-0.130727	0.839073	-0.343581	-0.068706	0.850266	-0.359024	-0.077588	0.909939	-0.371957	-0.254428	0.342095	-0.329548	-0.270377	0.302860	-0.337350	-0.211751	0.287350	-0.341626	-0.200789	0.325808	-0.337740	-0.370729	0.091297	-0.385862	-0.196081	0.024727	-0.315793	-0.151999	0.041311	-0.410318	-0.120520	0.030014	-0.407929	-0.170842	0.846533	-0.752168	-0.146540	0.790359	-0.762486	-0.084768	0.811575	-0.765298	-0.101321	0.868466	-0.756141	-0.271687	0.324746	-0.752159	-0.287043	0.288016	-0.744019	-0.227023	0.268204	-0.746762	-0.219223	0.311969	-0.755619	-0.377379	0.094003	-0.684113	-0.212630	0.025019	-0.779837	-0.160814	0.041423	-0.703604	-0.126951	0.029793	-0.709840	
